# xmcd
# 
# Track frame offsets:
#     150
#     38882
#     46590
#     53245
#     89900
#     92747
#     108512
#     120690
#     134395
# 
# Disc length: 2479
# 
# Revision: 12
# Processed by: cddbd v1.5.2PL0 Copyright (c) Steve Scherf et al.
# Submitted via: fre:ac v1.0.31
# 
DISCID=7909ad09
DTITLE=Yes - Fragile
DYEAR=1971
DGENRE=Progressive Rock
TTITLE0=Roundabout
TTITLE1=Cans And Brahms
TTITLE2=We Have Heaven
TTITLE3=South Side Of The Sky
TTITLE4=Five Per Cent For Nothing
TTITLE5=Long Distance Runaround
TTITLE6=The Fish (Schindleria Praematurus)
TTITLE7=Mood For A Day
TTITLE8=Heart Of The Sunrise
EXTD=
EXTT0=
EXTT1=
EXTT2=
EXTT3=
EXTT4=
EXTT5=
EXTT6=
EXTT7=
EXTT8=
PLAYORDER=
